<?xml version="1.0" encoding="UTF-8"?>
<svg id="Layer_1" xmlns="http://www.w3.org/2000/svg" version="1.1" viewBox="0 0 1080 1080">
  <!-- Generator: Adobe Illustrator 30.3.0, SVG Export Plug-In . SVG Version: 2.1.3 Build 182)  -->
  <defs>
    <style>
      .st0 {
        fill: #888a8c;
      }
    </style>
  </defs>
  <path class="st0" d="M854.4,29.9H225.6c-57.9,0-105.1,47.1-105.1,105.1v810.2c0,57.9,47.1,105.1,105.1,105.1h628.8c57.9,0,105.1-47.1,105.1-105.1V134.9c0-57.9-47.1-105.1-105.1-105.1ZM732,80.6c3.4,0,6.1,2.8,6.1,6.1s-2.8,6.1-6.1,6.1-6.1-2.8-6.1-6.1,2.8-6.1,6.1-6.1ZM673.8,35.7v10.8h-30v-10.8h30ZM404.9,35.7h30.2v10.8h-30.2v-10.8ZM346.7,80.6c3.4,0,6.1,2.8,6.1,6.1s-2.8,6.1-6.1,6.1-6.2-2.8-6.2-6.1,2.8-6.1,6.2-6.1ZM348,999.4c-3.4,0-6.1-2.8-6.1-6.1s2.8-6.1,6.1-6.1,6.1,2.8,6.1,6.1-2.8,6.1-6.1,6.1ZM406.2,1044.3v-10.8h30v10.8h-30ZM675.1,1044.3h-30.2v-10.8h30.2v10.8ZM733.3,999.4c-3.4,0-6.1-2.8-6.1-6.1s2.8-6.1,6.1-6.1,6.2,2.8,6.2,6.1-2.8,6.1-6.2,6.1ZM940.7,993.9h-39.2v-171.9c4.1-.8,7.3-4.5,7.3-8.9s-4.1-9.1-9.1-9.1-9.1,4.1-9.1,9.1,3.5,8.4,8,9v174.7h40.4c-8.7,14.2-20.9,26-35.3,34.3l-141.1-153.5c1.6-1.6,2.5-3.8,2.5-6.3,0-5-4.1-9.1-9.1-9.1s-9.1,4.1-9.1,9.1,4.1,9.1,9.1,9.1,2.9-.4,4.2-1l140.8,153.2c-13.9,7.5-29.8,11.7-46.7,11.7h-35.7v-5l-143.4-142.3c1.2-1.5,1.9-3.4,1.9-5.5,0-5-4.1-9.1-9.1-9.1s-9.1,4.1-9.1,9.1,4.1,9.1,9.1,9.1,3.6-.6,5.1-1.6l142.6,141.5v3.8h-80.7v-42.2c4.1-.8,7.3-4.5,7.3-8.9s-4.1-9.1-9.1-9.1-9.1,4.1-9.1,9.1,3.5,8.4,8,9v42.1h-54.2v-13.7h-33.1v-9c4.8-.2,8.7-4.2,8.7-9s-4.1-9.1-9.1-9.1-9.1,4.1-9.1,9.1,2.8,7.6,6.5,8.7v9.4h-61.2v-92.8c4.1-.8,7.3-4.5,7.3-8.9s-4.1-9.1-9.1-9.1-9.1,4.1-9.1,9.1,3.5,8.4,8,9v95.6h64.1v10.8h-202.8v-10.8h64.4v-95.6c4.6-.5,8.2-4.3,8.2-9s-4.1-9.1-9.1-9.1-9.1,4.1-9.1,9.1,3,7.9,7,8.8v92.9h-61.4v-9.3c3.9-1,6.7-4.6,6.7-8.8s-4.1-9.1-9.1-9.1-9.1,4.1-9.1,9.1,3.8,8.7,8.5,9v9h-32.9v13.7h-54.4v-42.1c4.6-.5,8.2-4.3,8.2-9s-4.1-9.1-9.1-9.1-9.1,4.1-9.1,9.1,3,7.9,7,8.8v42.2h-80.5v-3.8l142.7-141.6c1.5,1,3.3,1.7,5.2,1.7,5,0,9.1-4.1,9.1-9.1s-4.1-9.1-9.1-9.1-9.1,4.1-9.1,9.1.7,3.9,1.8,5.4l-143.1,142-.4.4v5h-36.9c-16.6,0-32.2-4.1-45.9-11.3l141-153.9c1.4.9,3,1.4,4.8,1.4,5,0,9.1-4.1,9.1-9.1s-4.1-9.1-9.1-9.1-9.1,4.1-9.1,9.1.8,4.2,2.1,5.8l-141.4,154.4c-14.8-8.3-27.2-20.3-36.1-34.8h44.6v-174.7c4.6-.5,8.2-4.3,8.2-9s-4.1-9.1-9.1-9.1-9.1,4.1-9.1,9.1,3,7.9,7,8.8v172h-43.4c-8.2-14.4-12.9-31.1-12.9-48.8v-5.5h3.9c.1,4.9,4.1,8.9,9.1,8.9s9.1-4.1,9.1-9.1-4.1-9.1-9.1-9.1-7.5,2.7-8.6,6.3h-4.3v-202h41.5c.9,4,4.5,7,8.8,7s9.1-4.1,9.1-9.1-4.1-9.1-9.1-9.1-8.6,3.6-9,8.2h-41.3v-87.2h22c.3,4.7,4.2,8.5,9,8.5s9.1-4.1,9.1-9.1-4.1-9.1-9.1-9.1-7.7,2.9-8.8,6.7h-22.3v-202.8h22.3c1.1,3.8,4.6,6.5,8.7,6.5s9.1-4.1,9.1-9.1-4.1-9.1-9.1-9.1-8.8,3.9-9,8.7h-22v-87.5h41.3c.5,4.5,4.4,8,9,8s9.1-4.1,9.1-9.1-4.1-9.1-9.1-9.1-8,3.1-8.9,7.3h-41.4v-202.2h4c1.2,3.7,4.6,6.3,8.6,6.3s9.1-4.1,9.1-9.1-4.1-9.1-9.1-9.1-9,4-9.1,8.9h-3.6v-5.5c0-17.7,4.7-34.4,12.9-48.8h39.2v171.9c-4.1.8-7.3,4.5-7.3,8.9s4.1,9.1,9.1,9.1,9.1-4.1,9.1-9.1-3.5-8.4-8-9V83.2h-40.4c8.7-14.2,20.9-26,35.3-34.3l141.1,153.5c-1.6,1.6-2.5,3.8-2.5,6.3,0,5,4.1,9.1,9.1,9.1s9.1-4.1,9.1-9.1-4.1-9.1-9.1-9.1-2.9.4-4.2,1L178.9,47.4c13.9-7.5,29.8-11.7,46.7-11.7h35.7v5l143.4,142.3c-1.2,1.5-1.9,3.4-1.9,5.5,0,5,4.1,9.1,9.1,9.1s9.1-4.1,9.1-9.1-4.1-9.1-9.1-9.1-3.6.6-5.1,1.6L264.2,39.5v-3.8h80.7v42.2c-4.1.8-7.3,4.5-7.3,8.9s4.1,9.1,9.1,9.1,9.1-4.1,9.1-9.1-3.5-8.4-8-9v-42.1h54.2v13.7h33.1v9c-4.8.2-8.7,4.2-8.7,9s4.1,9.1,9.1,9.1,9.1-4.1,9.1-9.1-2.8-7.6-6.5-8.7v-9.4h61.2v92.8c-4.1.8-7.3,4.5-7.3,8.9s4.1,9.1,9.1,9.1,9.1-4.1,9.1-9.1-3.5-8.4-8-9V46.5h-64.1v-10.8h202.8v10.8h-64.4v95.6c-4.6.5-8.2,4.3-8.2,9s4.1,9.1,9.1,9.1,9.1-4.1,9.1-9.1-3-7.9-7-8.8V49.4h61.4v9.3c-3.9,1-6.7,4.6-6.7,8.8s4.1,9.1,9.1,9.1,9.1-4.1,9.1-9.1-3.8-8.7-8.5-9v-9h32.9v-13.7h54.4v42.1c-4.6.5-8.2,4.3-8.2,9s4.1,9.1,9.1,9.1,9.1-4.1,9.1-9.1-3-7.9-7-8.8v-42.2h80.5v3.8l-142.7,141.6c-1.5-1-3.3-1.7-5.2-1.7-5,0-9.1,4.1-9.1,9.1s4.1,9.1,9.1,9.1,9.1-4.1,9.1-9.1-.7-3.9-1.8-5.4l143.1-142,.4-.4v-5h36.9c16.6,0,32.2,4.1,45.9,11.3l-141,153.9c-1.4-.9-3-1.4-4.8-1.4-5,0-9.1,4.1-9.1,9.1s4.1,9.1,9.1,9.1,9.1-4.1,9.1-9.1-.8-4.2-2.1-5.8l141.4-154.4c14.8,8.3,27.2,20.3,36.1,34.8h-44.6v174.7c-4.6.5-8.2,4.3-8.2,9s4.1,9.1,9.1,9.1,9.1-4.1,9.1-9.1-3-7.9-7-8.8V86.1h43.4c8.2,14.4,12.9,31.1,12.9,48.8v5.5h-3.9c-.1-4.9-4.1-8.9-9.1-8.9s-9.1,4.1-9.1,9.1,4.1,9.1,9.1,9.1,7.5-2.7,8.6-6.3h4.3v202h-42.2c-.9-4-4.5-7-8.8-7s-9.1,4.1-9.1,9.1,4.1,9.1,9.1,9.1,8.6-3.6,9-8.2h42.1v87.2h-22.8c-.3-4.7-4.2-8.5-9-8.5s-9.1,4.1-9.1,9.1,4.1,9.1,9.1,9.1,7.7-2.9,8.8-6.7h23v202.8h-23.1c-1.1-3.8-4.6-6.5-8.7-6.5s-9.1,4.1-9.1,9.1,4.1,9.1,9.1,9.1,8.8-3.9,9-8.7h22.7v87.5h-42.1c-.5-4.5-4.4-8-9-8s-9.1,4.1-9.1,9.1,4.1,9.1,9.1,9.1,8-3.1,8.9-7.3h42.2v202.2h-4c-1.2-3.7-4.6-6.3-8.6-6.3s-9.1,4.1-9.1,9.1,4.1,9.1,9.1,9.1,9-4,9.1-8.9h3.6v5.5c0,17.7-4.7,34.4-12.9,48.8ZM899.7,819.3c-3.4,0-6.1-2.8-6.1-6.1s2.8-6.1,6.1-6.1,6.2,2.8,6.2,6.1-2.8,6.1-6.2,6.1ZM756,877.6c-3.4,0-6.1-2.8-6.1-6.1s2.8-6.1,6.1-6.1,6.2,2.8,6.2,6.1-.6,3-1.6,4.1h0c0,0-1.3,1.1-1.3,1.1-.9.6-2.1,1-3.3,1ZM668.1,897.6c-3.4,0-6.1-2.8-6.1-6.1s2.8-6.1,6.1-6.1,6.1,2.8,6.1,6.1-2.8,6.1-6.1,6.1ZM644.5,1018.7c-3.4,0-6.1-2.8-6.1-6.1s2.8-6.1,6.1-6.1,6.1,2.8,6.1,6.1-2.8,6.1-6.1,6.1ZM578.9,935c-3.4,0-6.1-2.8-6.1-6.1s2.8-6.1,6.1-6.1,6.2,2.8,6.2,6.1-2.8,6.1-6.2,6.1ZM502.6,935c-3.4,0-6.1-2.8-6.1-6.1s2.8-6.1,6.1-6.1,6.2,2.8,6.2,6.1-2.8,6.1-6.2,6.1ZM436.8,1018.7c-3.4,0-6.1-2.8-6.1-6.1s2.8-6.1,6.1-6.1,6.1,2.8,6.1,6.1-2.8,6.1-6.1,6.1ZM407.2,891.5c0-3.4,2.8-6.1,6.1-6.1s6.1,2.8,6.1,6.1-2.8,6.1-6.1,6.1-6.1-2.8-6.1-6.1ZM319.3,871.4c0-3.4,2.8-6.1,6.1-6.1s6.2,2.8,6.2,6.1-2.8,6.1-6.2,6.1-6.1-2.8-6.1-6.1ZM184.7,819.3c-3.4,0-6.1-2.8-6.1-6.1s2.8-6.1,6.1-6.1,6.1,2.8,6.1,6.1-2.8,6.1-6.1,6.1ZM133.2,939.4c0-3.4,2.8-6.1,6.1-6.1s6.1,2.8,6.1,6.1-2.8,6.1-6.1,6.1-6.1-2.8-6.1-6.1ZM170.5,732.7c0-3.4,2.8-6.1,6.1-6.1s6.2,2.8,6.2,6.1-2.8,6.1-6.2,6.1-6.1-2.8-6.1-6.1ZM151.3,644c0-3.4,2.8-6.1,6.1-6.1s6.2,2.8,6.2,6.1-2.8,6.1-6.2,6.1-6.1-2.8-6.1-6.1ZM151.3,436.3c0-3.4,2.8-6.1,6.1-6.1s6.2,2.8,6.2,6.1-2.8,6.1-6.2,6.1-6.1-2.8-6.1-6.1ZM170.5,347.3c0-3.4,2.8-6.1,6.1-6.1s6.2,2.8,6.2,6.1-2.8,6.1-6.2,6.1-6.1-2.8-6.1-6.1ZM132.9,140.6c0-3.4,2.8-6.1,6.1-6.1s6.1,2.8,6.1,6.1-2.8,6.1-6.1,6.1-6.1-2.8-6.1-6.1ZM180.3,260.7c3.4,0,6.1,2.8,6.1,6.1s-2.8,6.1-6.1,6.1-6.2-2.8-6.2-6.1,2.8-6.1,6.2-6.1ZM324,202.4c3.4,0,6.1,2.8,6.1,6.1s-2.8,6.1-6.1,6.1-6.1-2.8-6.1-6.1.6-3,1.6-4.1h0s1.3-1.1,1.3-1.1c.9-.6,2.1-1,3.3-1ZM411.9,182.4c3.4,0,6.1,2.8,6.1,6.1s-2.8,6.1-6.1,6.1-6.2-2.8-6.2-6.1,2.8-6.1,6.2-6.1ZM435.5,61.3c3.4,0,6.1,2.8,6.1,6.1s-2.8,6.1-6.1,6.1-6.2-2.8-6.2-6.1,2.8-6.1,6.2-6.1ZM501.1,145c3.4,0,6.1,2.8,6.1,6.1s-2.8,6.1-6.1,6.1-6.1-2.8-6.1-6.1,2.8-6.1,6.1-6.1ZM577.4,145c3.4,0,6.1,2.8,6.1,6.1s-2.8,6.1-6.1,6.1-6.1-2.8-6.1-6.1,2.8-6.1,6.1-6.1ZM643.2,61.3c3.4,0,6.1,2.8,6.1,6.1s-2.8,6.1-6.1,6.1-6.1-2.8-6.1-6.1,2.8-6.1,6.1-6.1ZM672.8,188.5c0,3.4-2.8,6.1-6.1,6.1s-6.1-2.8-6.1-6.1,2.8-6.1,6.1-6.1,6.1,2.8,6.1,6.1ZM760.7,208.6c0,3.4-2.8,6.1-6.1,6.1s-6.1-2.8-6.1-6.1,2.8-6.1,6.1-6.1,6.1,2.8,6.1,6.1ZM895.3,260.7c3.4,0,6.1,2.8,6.1,6.1s-2.8,6.1-6.1,6.1-6.1-2.8-6.1-6.1,2.8-6.1,6.1-6.1ZM946.8,140.6c0,3.4-2.8,6.1-6.1,6.1s-6.2-2.8-6.2-6.1,2.8-6.1,6.2-6.1,6.1,2.8,6.1,6.1ZM908.7,347.3c0,3.4-2.8,6.1-6.1,6.1s-6.1-2.8-6.1-6.1,2.8-6.1,6.1-6.1,6.1,2.8,6.1,6.1ZM928,436c0,3.4-2.8,6.1-6.1,6.1s-6.1-2.8-6.1-6.1,2.8-6.1,6.1-6.1,6.1,2.8,6.1,6.1ZM928,643.7c0,3.4-2.8,6.1-6.1,6.1s-6.1-2.8-6.1-6.1,2.8-6.1,6.1-6.1,6.1,2.8,6.1,6.1ZM908.7,732.7c0,3.4-2.8,6.1-6.1,6.1s-6.1-2.8-6.1-6.1,2.8-6.1,6.1-6.1,6.1,2.8,6.1,6.1ZM947.1,939.4c0,3.4-2.8,6.1-6.1,6.1s-6.1-2.8-6.1-6.1,2.8-6.1,6.1-6.1,6.1,2.8,6.1,6.1Z"/>
</svg>